<svg xmlns="http://www.w3.org/2000/svg" width="141.357" height="109.944" viewBox="0 0 141.357 109.944">
  <path id="dashboard-svg" d="M70.678,32A70.675,70.675,0,0,0,9.586,138.214a7.766,7.766,0,0,0,6.734,3.73H125.037a7.766,7.766,0,0,0,6.734-3.73A70.675,70.675,0,0,0,70.678,32Zm0,15.706a7.749,7.749,0,0,1,7.441,5.8,13.228,13.228,0,0,0-.847,1.637L75.01,61.938a7.649,7.649,0,0,1-4.329,1.475,7.853,7.853,0,0,1,0-15.706ZM23.559,118.385a7.853,7.853,0,1,1,7.853-7.853A7.854,7.854,0,0,1,23.559,118.385Zm11.78-39.266a7.853,7.853,0,1,1,7.853-7.853A7.854,7.854,0,0,1,35.339,79.119ZM95.9,61.349,80.848,106.5a15.412,15.412,0,0,1,3.357,19.734H57.151a15.544,15.544,0,0,1,12.521-23.459L84.726,57.621A5.89,5.89,0,1,1,95.9,61.349Zm3.6,14.038,3.809-11.424a7.742,7.742,0,0,1,2.712-.547,7.853,7.853,0,1,1,0,15.706A7.734,7.734,0,0,1,99.5,75.386Zm18.3,43a7.853,7.853,0,1,1,7.853-7.853A7.854,7.854,0,0,1,117.8,118.385Z" transform="translate(0 -32)" fill="#fff"/>
</svg>
