<svg xmlns="http://www.w3.org/2000/svg" width="110.434" height="110.001" viewBox="0 0 110.434 110.001">
  <g id="family-svg" transform="translate(0 -1.002)">
    <path id="Path_227" data-name="Path 227" d="M35.062,282.609l1.622-1.823a19.423,19.423,0,0,1,.078-11.807,22.618,22.618,0,0,1-28.169-5.252A22.609,22.609,0,0,0,0,281.473v32.353a3.237,3.237,0,0,0,3.235,3.235H29.89a9.628,9.628,0,0,1-.556-3.235V297.65A22.6,22.6,0,0,1,35.062,282.609Z" transform="translate(0 -206.059)" fill="#fff"/>
    <ellipse id="Ellipse_5" data-name="Ellipse 5" cx="17" cy="15" rx="17" ry="15" transform="translate(10 28.002)" fill="#fff"/>
    <path id="Path_228" data-name="Path 228" d="M369.729,263.728a22.612,22.612,0,0,1-28.169,5.25,19.432,19.432,0,0,1,.078,11.809l1.622,1.823a22.6,22.6,0,0,1,5.729,15.04v16.177a9.627,9.627,0,0,1-.556,3.235h26.655a3.237,3.237,0,0,0,3.235-3.235V281.473A22.609,22.609,0,0,0,369.729,263.728Z" transform="translate(-267.889 -206.059)" fill="#fff"/>
    <ellipse id="Ellipse_6" data-name="Ellipse 6" cx="14.5" cy="15" rx="14.5" ry="15" transform="translate(69 28.002)" fill="#fff"/>
    <path id="Path_229" data-name="Path 229" d="M185.412,378.712a19.387,19.387,0,0,1-15.32-7.5A16.1,16.1,0,0,0,166,381.947v16.177a3.237,3.237,0,0,0,3.235,3.235h32.353a3.237,3.237,0,0,0,3.235-3.235V381.947a16.1,16.1,0,0,0-4.092-10.739A19.386,19.386,0,0,1,185.412,378.712Z" transform="translate(-130.196 -290.356)" fill="#fff"/>
    <ellipse id="Ellipse_7" data-name="Ellipse 7" cx="12.5" cy="12" rx="12.5" ry="12" transform="translate(44 58.002)" fill="#fff"/>
    <path id="Path_230" data-name="Path 230" d="M184.049,27.1a54.174,54.174,0,0,0,7.51,5.776,3.236,3.236,0,0,0,3.392,0,54.155,54.155,0,0,0,7.51-5.776c5.341-4.936,8.05-9.735,8.05-14.263,0-10.283-10.226-15.11-17.255-9.4C186.21-2.288,176,2.579,176,12.835,176,17.363,178.708,22.162,184.049,27.1Z" transform="translate(-138.039 0)" fill="#fff"/>
  </g>
</svg>
