<svg id="family-color" xmlns="http://www.w3.org/2000/svg" width="121.793" height="121.315" viewBox="0 0 121.793 121.315">
  <path id="Path_227" data-name="Path 227" d="M38.669,284.552l1.789-2.01a21.421,21.421,0,0,1,.086-13.021,24.944,24.944,0,0,1-31.066-5.792A24.934,24.934,0,0,0,0,283.3v35.681a3.569,3.569,0,0,0,3.568,3.568h29.4a10.618,10.618,0,0,1-.614-3.568V301.139A24.922,24.922,0,0,1,38.669,284.552Z" transform="translate(0 -201.232)" fill="#f89bba"/>
  <ellipse id="Ellipse_5" data-name="Ellipse 5" cx="17.5" cy="18.5" rx="17.5" ry="18.5" transform="translate(11.533 27.815)" fill="#f89bba"/>
  <path id="Path_228" data-name="Path 228" d="M372.626,263.728a24.938,24.938,0,0,1-31.066,5.79,21.431,21.431,0,0,1,.086,13.024l1.789,2.01a24.922,24.922,0,0,1,6.318,16.587v17.841a10.62,10.62,0,0,1-.614,3.568h29.4a3.569,3.569,0,0,0,3.568-3.568V283.3A24.934,24.934,0,0,0,372.626,263.728Z" transform="translate(-260.311 -201.232)" fill="#f89bba"/>
  <circle id="Ellipse_6" data-name="Ellipse 6" cx="18.5" cy="18.5" r="18.5" transform="translate(74.533 27.815)" fill="#f89bba"/>
  <path id="Path_229" data-name="Path 229" d="M187.409,379.484a21.38,21.38,0,0,1-16.9-8.276A17.76,17.76,0,0,0,166,383.052v17.841a3.569,3.569,0,0,0,3.568,3.568h35.681a3.569,3.569,0,0,0,3.568-3.568V383.052a17.76,17.76,0,0,0-4.512-11.844A21.38,21.38,0,0,1,187.409,379.484Z" transform="translate(-126.513 -283.145)" fill="#f89bba"/>
  <circle id="Ellipse_7" data-name="Ellipse 7" cx="14" cy="14" r="14" transform="translate(46.533 60.815)" fill="#f89bba"/>
  <path id="Path_230" data-name="Path 230" d="M184.877,29.783a59.745,59.745,0,0,0,8.282,6.37,3.569,3.569,0,0,0,3.741,0,59.726,59.726,0,0,0,8.282-6.37c5.891-5.444,8.878-10.736,8.878-15.73,0-11.341-11.278-16.664-19.03-10.364C187.26-2.626,176,2.742,176,14.052,176,19.046,178.987,24.339,184.877,29.783Z" transform="translate(-134.134 -1.002)" fill="#f89bba"/>
</svg>
