<svg xmlns="http://www.w3.org/2000/svg" width="20.5" height="20.5" viewBox="0 0 20.5 20.5">
  <path id="Icon_awesome-youtube-square" data-name="Icon awesome-youtube-square" d="M8.548,10.034,12.9,12.509,8.548,14.985ZM20.5,4.446V20.554a2.2,2.2,0,0,1-2.2,2.2H2.2a2.2,2.2,0,0,1-2.2-2.2V4.446a2.2,2.2,0,0,1,2.2-2.2H18.3A2.2,2.2,0,0,1,20.5,4.446Zm-1.922,8.067a21.988,21.988,0,0,0-.348-4.036A2.089,2.089,0,0,0,16.757,7a49.138,49.138,0,0,0-6.507-.352A49.138,49.138,0,0,0,3.743,7,2.089,2.089,0,0,0,2.27,8.478a21.961,21.961,0,0,0-.348,4.036A21.988,21.988,0,0,0,2.27,16.55a2.059,2.059,0,0,0,1.473,1.46,49.778,49.778,0,0,0,6.507.348A49.138,49.138,0,0,0,16.757,18a2.059,2.059,0,0,0,1.473-1.46,21.92,21.92,0,0,0,.348-4.031Z" transform="translate(0 -2.25)" fill="#fff"/>
</svg>
