<svg xmlns="http://www.w3.org/2000/svg" width="110" height="110.001" viewBox="0 0 110 110.001">
  <path id="message-svg" d="M37.813,46.407H72.188a3.437,3.437,0,0,0,3.438-3.437V39.532a3.437,3.437,0,0,0-3.437-3.437H37.813a3.437,3.437,0,0,0-3.437,3.438v3.438A3.437,3.437,0,0,0,37.813,46.407ZM34.375,63.594a3.437,3.437,0,0,0,3.438,3.438H72.188a3.437,3.437,0,0,0,3.438-3.437V60.157a3.437,3.437,0,0,0-3.437-3.437H37.813a3.437,3.437,0,0,0-3.437,3.438ZM55,89.618a17.163,17.163,0,0,1-10.068-3.263L0,53.9V99.688A10.312,10.312,0,0,0,10.313,110H99.688A10.312,10.312,0,0,0,110,99.688V53.9L65.068,86.355A17.178,17.178,0,0,1,55,89.618Zm51.049-54.609c-1.9-1.491-3.7-2.894-6.362-4.9V20.625A10.312,10.312,0,0,0,89.375,10.313H72.714C72.061,9.84,71.453,9.4,70.772,8.9,67.16,6.267,59.984-.075,55,0,50.016-.075,42.842,6.267,39.228,8.9c-.681.494-1.289.937-1.942,1.409H20.625A10.312,10.312,0,0,0,10.313,20.625v9.483c-2.658,2-4.46,3.41-6.362,4.9A10.311,10.311,0,0,0,0,43.124v2.288l20.625,14.9V20.625h68.75V60.311L110,45.412V43.124a10.311,10.311,0,0,0-3.951-8.115Z" transform="translate(0 0)" fill="#fff"/>
</svg>
