<svg xmlns="http://www.w3.org/2000/svg" width="157.145" height="110.001" viewBox="0 0 157.145 110.001">
  <path id="team-svg" d="M23.572,79.143A15.714,15.714,0,1,0,7.857,63.429,15.729,15.729,0,0,0,23.572,79.143Zm110,0a15.714,15.714,0,1,0-15.714-15.714A15.729,15.729,0,0,0,133.572,79.143ZM141.429,87H125.715a15.668,15.668,0,0,0-11.074,4.567,35.915,35.915,0,0,1,18.44,26.862h16.205a7.849,7.849,0,0,0,7.857-7.857v-7.857A15.729,15.729,0,0,0,141.429,87ZM78.572,87a27.5,27.5,0,1,0-27.5-27.5A27.486,27.486,0,0,0,78.572,87Zm18.857,7.857H95.391a37.968,37.968,0,0,1-33.639,0H59.715a28.293,28.293,0,0,0-28.286,28.286v7.071A11.789,11.789,0,0,0,43.215,142h70.715a11.789,11.789,0,0,0,11.786-11.786v-7.071A28.293,28.293,0,0,0,97.429,94.858ZM42.5,91.567A15.668,15.668,0,0,0,31.429,87H15.714A15.729,15.729,0,0,0,0,102.715v7.857a7.849,7.849,0,0,0,7.857,7.857H24.038A36.006,36.006,0,0,1,42.5,91.567Z" transform="translate(0 -32)" fill="#fff"/>
</svg>
