<svg xmlns="http://www.w3.org/2000/svg" width="139.631" height="110.247" viewBox="0 0 139.631 110.247">
  <g id="upload-svg" transform="translate(0 -53.873)">
    <g id="Group_495" data-name="Group 495" transform="translate(0 53.873)">
      <g id="Group_494" data-name="Group 494">
        <path id="Path_324" data-name="Path 324" d="M110.714,92.391A39.041,39.041,0,0,0,33.466,84.9l-.375,0a33.091,33.091,0,1,0,0,66.183H56.2a2.978,2.978,0,1,0,0-5.956H33.092a27.136,27.136,0,1,1,0-54.271c.8,0,1.64.043,2.577.131a2.98,2.98,0,0,0,3.23-2.562,33.085,33.085,0,0,1,65.865,4.507c0,.657-.049,1.335-.1,2.052l-.022.3a2.978,2.978,0,0,0,3.268,3.173,23.749,23.749,0,0,1,2.375-.12,23.393,23.393,0,1,1,0,46.786h-24.3a2.978,2.978,0,1,0,0,5.956h24.3a29.348,29.348,0,0,0,.431-58.693Z" transform="translate(0 -53.873)" fill="#fff"/>
      </g>
    </g>
    <g id="Group_497" data-name="Group 497" transform="translate(46.836 67.869)">
      <g id="Group_496" data-name="Group 496" transform="translate(0 0)">
        <path id="Path_325" data-name="Path 325" d="M196.561,105.192a25.118,25.118,0,0,0-24.794,21.645,2.978,2.978,0,0,0,2.548,3.353,3.02,3.02,0,0,0,.406.028,2.978,2.978,0,0,0,2.946-2.576,19.141,19.141,0,0,1,18.893-16.495,2.978,2.978,0,0,0,0-5.956Z" transform="translate(-171.74 -105.192)" fill="#fff"/>
      </g>
    </g>
    <g id="Group_499" data-name="Group 499" transform="translate(55.989 115.537)">
      <g id="Group_498" data-name="Group 498">
        <path id="Path_326" data-name="Path 326" d="M234.512,290.91l-10.832-9.676a4.914,4.914,0,0,0-6.553,0L206.3,290.91a2.978,2.978,0,0,0,3.968,4.442l7.163-6.4v36.634a2.978,2.978,0,0,0,5.956,0V288.953l7.163,6.4a2.978,2.978,0,1,0,3.967-4.442Z" transform="translate(-205.302 -279.982)" fill="#fff"/>
      </g>
    </g>
  </g>
</svg>
